<?xml version="1.0" encoding="UTF-8"?>
<svg id="Layer_1" xmlns="http://www.w3.org/2000/svg" xmlns:xlink="http://www.w3.org/1999/xlink" version="1.1" viewBox="95 340 360 120">
  <!-- Generator: Adobe Illustrator 29.7.1, SVG Export Plug-In . SVG Version: 2.1.1 Build 8)  -->
  <defs>
    <style>
      .st0 {
        fill: none;
      }

      .st1 {
        fill: url(#linear-gradient2);
      }

      .st2 {
        fill: url(#linear-gradient1);
      }

      .st3 {
        fill: url(#linear-gradient3);
      }

      .st4 {
        fill: url(#linear-gradient);
      }

      .st5 {
        clip-path: url(#clippath-11);
      }

      .st6 {
        clip-path: url(#clippath-10);
      }

      .st7 {
        clip-path: url(#clippath-1);
      }

      .st8 {
        clip-path: url(#clippath-3);
      }

      .st9 {
        clip-path: url(#clippath-4);
      }

      .st10 {
        clip-path: url(#clippath-2);
      }

      .st11 {
        clip-path: url(#clippath-7);
      }

      .st12 {
        clip-path: url(#clippath-6);
      }

      .st13 {
        clip-path: url(#clippath-9);
      }

      .st14 {
        clip-path: url(#clippath-8);
      }

      .st15 {
        clip-path: url(#clippath-5);
      }

      .st16, .st17 {
        fill: #000;
      }

      .st17 {
        font-family: MyriadPro-Regular, 'Myriad Pro';
        font-size: 21.51px;
      }

      .st18 {
        clip-path: url(#clippath);
      }
    </style>
    <clipPath id="clippath">
      <rect class="st0" x="107.4" y="353.43" width="135.23" height="68.34"/>
    </clipPath>
    <clipPath id="clippath-1">
      <path class="st0" d="M242.62,372.73c-9.56-14.74-34.49-23.5-55.37-17.22-21.42,6.46-33.61,26.09-47.19,40.67-14.47,15.52-34.83,20.35-29.11-8.04-2.76,5.73-3.82,11.34-3.48,16.59.72,10.88,8.43,16.67,17.56,16.94,19.36.58,30.96-17.22,43.89-33.1,23.47-28.85,54.94-28.63,73.7-15.85h0Z"/>
    </clipPath>
    <clipPath id="clippath-2">
      <path class="st0" d="M242.62,372.73c-9.56-14.74-34.49-23.5-55.37-17.22-21.42,6.46-33.61,26.09-47.19,40.67-14.47,15.52-34.83,20.35-29.11-8.04-2.76,5.73-3.82,11.34-3.48,16.59.72,10.88,8.43,16.67,17.56,16.94,19.36.58,30.96-17.22,43.89-33.1,23.47-28.85,54.94-28.63,73.7-15.85h0Z"/>
    </clipPath>
    <linearGradient id="linear-gradient" x1="629.2" y1="-1136.72" x2="629.36" y2="-1136.72" gradientTransform="translate(-592172.43 297122.06) rotate(-87.64) scale(509.91 -509.91)" gradientUnits="userSpaceOnUse">
      <stop offset="0" stop-color="#911947"/>
      <stop offset=".12" stop-color="#911947"/>
      <stop offset=".19" stop-color="#911947"/>
      <stop offset=".22" stop-color="#911947"/>
      <stop offset=".23" stop-color="#911947"/>
      <stop offset=".24" stop-color="#911947"/>
      <stop offset=".25" stop-color="#921947"/>
      <stop offset=".25" stop-color="#921a48"/>
      <stop offset=".25" stop-color="#921a48"/>
      <stop offset=".26" stop-color="#931a49"/>
      <stop offset=".26" stop-color="#931a49"/>
      <stop offset=".27" stop-color="#951a4a"/>
      <stop offset=".27" stop-color="#961a4a"/>
      <stop offset=".27" stop-color="#961a4b"/>
      <stop offset=".28" stop-color="#971b4b"/>
      <stop offset=".28" stop-color="#981b4c"/>
      <stop offset=".29" stop-color="#991b4d"/>
      <stop offset=".29" stop-color="#991b4d"/>
      <stop offset=".29" stop-color="#9a1b4e"/>
      <stop offset=".3" stop-color="#9a1c4e"/>
      <stop offset=".3" stop-color="#9b1c4f"/>
      <stop offset=".3" stop-color="#9b1c4f"/>
      <stop offset=".31" stop-color="#9c1c50"/>
      <stop offset=".31" stop-color="#9c1c50"/>
      <stop offset=".32" stop-color="#9c1c51"/>
      <stop offset=".32" stop-color="#9d1d51"/>
      <stop offset=".32" stop-color="#9f1d52"/>
      <stop offset=".33" stop-color="#9f1d52"/>
      <stop offset=".33" stop-color="#9f1d53"/>
      <stop offset=".34" stop-color="#a01d53"/>
      <stop offset=".34" stop-color="#a11d54"/>
      <stop offset=".34" stop-color="#a21d54"/>
      <stop offset=".35" stop-color="#a31d55"/>
      <stop offset=".35" stop-color="#a31d55"/>
      <stop offset=".36" stop-color="#a41e56"/>
      <stop offset=".36" stop-color="#a51e56"/>
      <stop offset=".36" stop-color="#a61e57"/>
      <stop offset=".37" stop-color="#a61e57"/>
      <stop offset=".37" stop-color="#a71e58"/>
      <stop offset=".38" stop-color="#a81e58"/>
      <stop offset=".38" stop-color="#a81e59"/>
      <stop offset=".38" stop-color="#aa1e59"/>
      <stop offset=".39" stop-color="#ab1e5a"/>
      <stop offset=".39" stop-color="#ab1e5a"/>
      <stop offset=".39" stop-color="#ac1f5b"/>
      <stop offset=".4" stop-color="#ad1e5b"/>
      <stop offset=".4" stop-color="#ae1f5c"/>
      <stop offset=".41" stop-color="#ae1f5c"/>
      <stop offset=".41" stop-color="#af1f5d"/>
      <stop offset=".41" stop-color="#b01f5d"/>
      <stop offset=".42" stop-color="#af1f5e"/>
      <stop offset=".42" stop-color="#b01f5d"/>
      <stop offset=".43" stop-color="#b11f5e"/>
      <stop offset=".43" stop-color="#b11f5e"/>
      <stop offset=".43" stop-color="#b21f5f"/>
      <stop offset=".44" stop-color="#b31f5f"/>
      <stop offset=".44" stop-color="#b41f60"/>
      <stop offset=".45" stop-color="#b41f60"/>
      <stop offset=".45" stop-color="#b51f61"/>
      <stop offset=".45" stop-color="#b61f61"/>
      <stop offset=".46" stop-color="#b51f62"/>
      <stop offset=".46" stop-color="#b71f62"/>
      <stop offset=".46" stop-color="#b81f63"/>
      <stop offset=".47" stop-color="#b81f63"/>
      <stop offset=".47" stop-color="#b91f64"/>
      <stop offset=".48" stop-color="#ba1f64"/>
      <stop offset=".48" stop-color="#bb1f65"/>
      <stop offset=".48" stop-color="#ba1f64"/>
      <stop offset=".49" stop-color="#bc1f65"/>
      <stop offset=".49" stop-color="#bd1f66"/>
      <stop offset=".5" stop-color="#bd1e67"/>
      <stop offset=".5" stop-color="#be1e66"/>
      <stop offset=".5" stop-color="#bf1e68"/>
      <stop offset=".51" stop-color="#bf1e68"/>
      <stop offset=".51" stop-color="#c11e69"/>
      <stop offset=".52" stop-color="#c11e68"/>
      <stop offset=".52" stop-color="#c21d69"/>
      <stop offset=".52" stop-color="#c21d69"/>
      <stop offset=".53" stop-color="#c4206b"/>
      <stop offset=".53" stop-color="#c4206b"/>
      <stop offset=".54" stop-color="#c4206b"/>
      <stop offset=".54" stop-color="#c5226d"/>
      <stop offset=".54" stop-color="#c6236d"/>
      <stop offset=".55" stop-color="#c6236d"/>
      <stop offset=".55" stop-color="#c7236d"/>
      <stop offset=".55" stop-color="#c9246f"/>
      <stop offset=".56" stop-color="#ca246f"/>
      <stop offset=".56" stop-color="#ca246f"/>
      <stop offset=".57" stop-color="#ca246f"/>
      <stop offset=".57" stop-color="#cb2471"/>
      <stop offset=".57" stop-color="#cb2471"/>
      <stop offset=".58" stop-color="#cc2371"/>
      <stop offset=".58" stop-color="#cd2571"/>
      <stop offset=".59" stop-color="#cd2572"/>
      <stop offset=".59" stop-color="#ce2472"/>
      <stop offset=".59" stop-color="#d02474"/>
      <stop offset=".6" stop-color="#d12474"/>
      <stop offset=".6" stop-color="#d12474"/>
      <stop offset=".61" stop-color="#d22474"/>
      <stop offset=".61" stop-color="#d32575"/>
      <stop offset=".61" stop-color="#d32575"/>
      <stop offset=".62" stop-color="#d42677"/>
      <stop offset=".62" stop-color="#d42677"/>
      <stop offset=".62" stop-color="#d42878"/>
      <stop offset=".63" stop-color="#d52877"/>
      <stop offset=".63" stop-color="#d62778"/>
      <stop offset=".64" stop-color="#d72979"/>
      <stop offset=".64" stop-color="#d72979"/>
      <stop offset=".64" stop-color="#d82979"/>
      <stop offset=".65" stop-color="#d8287b"/>
      <stop offset=".65" stop-color="#d92a7a"/>
      <stop offset=".66" stop-color="#da2a7c"/>
      <stop offset=".66" stop-color="#db287b"/>
      <stop offset=".66" stop-color="#db297d"/>
      <stop offset=".67" stop-color="#dc297d"/>
      <stop offset=".67" stop-color="#dd297d"/>
      <stop offset=".68" stop-color="#de297d"/>
      <stop offset=".68" stop-color="#de2a7f"/>
      <stop offset=".68" stop-color="#df2a7f"/>
      <stop offset=".69" stop-color="#df2c80"/>
      <stop offset=".69" stop-color="#e02c7f"/>
      <stop offset=".7" stop-color="#e12d81"/>
      <stop offset=".7" stop-color="#e12d81"/>
      <stop offset=".7" stop-color="#e12d82"/>
      <stop offset=".71" stop-color="#e22f82"/>
      <stop offset=".71" stop-color="#e42e83"/>
      <stop offset=".72" stop-color="#e42e83"/>
      <stop offset=".75" stop-color="#e42e83"/>
      <stop offset="1" stop-color="#e42e83"/>
    </linearGradient>
    <clipPath id="clippath-3">
      <rect class="st0" x="114.96" y="375.39" width="119.97" height="60.68"/>
    </clipPath>
    <clipPath id="clippath-4">
      <path class="st0" d="M114.97,422.48c6.22,7.14,15.81,12.11,27.08,13.52,31.62-1.1,42.68-18.58,51.77-34.59,16.78-29.17,41.18-4.73,15.69.7-10.34,2.19-19.67,5.89-20.14,18.55,6.63-11.3,24.77-5.4,35.67-10.07,23.53-10.07,1.36-43.72-28.02-33.16-22.95,8.25-25.12,33.42-45.13,43.12-9.65,4.67-25.37,5.87-36.92,1.93h0Z"/>
    </clipPath>
    <clipPath id="clippath-5">
      <path class="st0" d="M114.97,422.48c6.22,7.14,15.81,12.11,27.08,13.52,31.62-1.1,42.68-18.58,51.77-34.59,16.78-29.17,41.18-4.73,15.69.7-10.34,2.19-19.67,5.89-20.14,18.55,6.63-11.3,24.77-5.4,35.67-10.07,23.53-10.07,1.36-43.72-28.02-33.16-22.95,8.25-25.12,33.42-45.13,43.12-9.65,4.67-25.37,5.87-36.92,1.93h0Z"/>
    </clipPath>
    <linearGradient id="linear-gradient1" x1="622.49" y1="-1143.19" x2="622.64" y2="-1143.19" gradientTransform="translate(603268.42 -461062.8) rotate(81.15) scale(583.37 -583.37)" gradientUnits="userSpaceOnUse">
      <stop offset="0" stop-color="#1c5b31"/>
      <stop offset=".25" stop-color="#1c5b31"/>
      <stop offset=".28" stop-color="#1c5b31"/>
      <stop offset=".3" stop-color="#1c5b31"/>
      <stop offset=".3" stop-color="#1d5c31"/>
      <stop offset=".3" stop-color="#1f5d30"/>
      <stop offset=".31" stop-color="#215e30"/>
      <stop offset=".31" stop-color="#215f30"/>
      <stop offset=".32" stop-color="#236030"/>
      <stop offset=".32" stop-color="#236131"/>
      <stop offset=".32" stop-color="#266231"/>
      <stop offset=".33" stop-color="#266331"/>
      <stop offset=".33" stop-color="#286432"/>
      <stop offset=".34" stop-color="#2a6532"/>
      <stop offset=".34" stop-color="#2b6633"/>
      <stop offset=".34" stop-color="#2d6733"/>
      <stop offset=".35" stop-color="#2e6833"/>
      <stop offset=".35" stop-color="#306934"/>
      <stop offset=".36" stop-color="#306a34"/>
      <stop offset=".36" stop-color="#336b35"/>
      <stop offset=".36" stop-color="#336c35"/>
      <stop offset=".37" stop-color="#356d35"/>
      <stop offset=".37" stop-color="#366e36"/>
      <stop offset=".38" stop-color="#386f36"/>
      <stop offset=".38" stop-color="#387036"/>
      <stop offset=".38" stop-color="#3b7137"/>
      <stop offset=".39" stop-color="#3c7237"/>
      <stop offset=".39" stop-color="#3d7337"/>
      <stop offset=".39" stop-color="#3f7438"/>
      <stop offset=".4" stop-color="#3f7538"/>
      <stop offset=".4" stop-color="#427638"/>
      <stop offset=".41" stop-color="#437738"/>
      <stop offset=".41" stop-color="#447839"/>
      <stop offset=".41" stop-color="#457939"/>
      <stop offset=".42" stop-color="#477a39"/>
      <stop offset=".42" stop-color="#487b39"/>
      <stop offset=".43" stop-color="#4a7b3a"/>
      <stop offset=".43" stop-color="#4b7d3a"/>
      <stop offset=".43" stop-color="#4b7e3a"/>
      <stop offset=".44" stop-color="#4e7f3a"/>
      <stop offset=".44" stop-color="#4f803b"/>
      <stop offset=".45" stop-color="#51813b"/>
      <stop offset=".45" stop-color="#52823b"/>
      <stop offset=".45" stop-color="#54833b"/>
      <stop offset=".46" stop-color="#55843c"/>
      <stop offset=".46" stop-color="#57853c"/>
      <stop offset=".46" stop-color="#57863c"/>
      <stop offset=".47" stop-color="#5a873c"/>
      <stop offset=".47" stop-color="#5b883c"/>
      <stop offset=".48" stop-color="#5c893d"/>
      <stop offset=".48" stop-color="#5e8a3d"/>
      <stop offset=".48" stop-color="#608b3d"/>
      <stop offset=".49" stop-color="#618c3d"/>
      <stop offset=".49" stop-color="#628d3d"/>
      <stop offset=".5" stop-color="#648e3d"/>
      <stop offset=".5" stop-color="#658f3d"/>
      <stop offset=".5" stop-color="#66903d"/>
      <stop offset=".51" stop-color="#68913e"/>
      <stop offset=".51" stop-color="#69933e"/>
      <stop offset=".52" stop-color="#6b933e"/>
      <stop offset=".52" stop-color="#6c943e"/>
      <stop offset=".52" stop-color="#6e953e"/>
      <stop offset=".53" stop-color="#6f963e"/>
      <stop offset=".53" stop-color="#70973e"/>
      <stop offset=".54" stop-color="#71983e"/>
      <stop offset=".54" stop-color="#73993e"/>
      <stop offset=".54" stop-color="#759a3e"/>
      <stop offset=".55" stop-color="#779b3e"/>
      <stop offset=".55" stop-color="#789b3e"/>
      <stop offset=".55" stop-color="#799d3e"/>
      <stop offset=".56" stop-color="#7a9d3e"/>
      <stop offset=".56" stop-color="#7b9f3e"/>
      <stop offset=".57" stop-color="#7d9f3e"/>
      <stop offset=".57" stop-color="#7ea03e"/>
      <stop offset=".57" stop-color="#80a23e"/>
      <stop offset=".58" stop-color="#81a33e"/>
      <stop offset=".58" stop-color="#83a43e"/>
      <stop offset=".59" stop-color="#84a43e"/>
      <stop offset=".59" stop-color="#86a53d"/>
      <stop offset=".59" stop-color="#87a73e"/>
      <stop offset=".6" stop-color="#88a73d"/>
      <stop offset=".6" stop-color="#8aa83e"/>
      <stop offset=".61" stop-color="#8ba93d"/>
      <stop offset=".61" stop-color="#8dab3d"/>
      <stop offset=".61" stop-color="#8eac3d"/>
      <stop offset=".62" stop-color="#8fac3d"/>
      <stop offset=".62" stop-color="#90ad3d"/>
      <stop offset=".62" stop-color="#92ae3c"/>
      <stop offset=".63" stop-color="#93af3c"/>
      <stop offset=".63" stop-color="#96b13c"/>
      <stop offset=".64" stop-color="#96b23c"/>
      <stop offset=".64" stop-color="#98b33c"/>
      <stop offset=".64" stop-color="#9ab43b"/>
      <stop offset=".65" stop-color="#9bb53b"/>
      <stop offset=".65" stop-color="#9db63b"/>
      <stop offset=".66" stop-color="#9eb83b"/>
      <stop offset=".66" stop-color="#a0b83b"/>
      <stop offset=".66" stop-color="#a1b93a"/>
      <stop offset=".67" stop-color="#a3ba3a"/>
      <stop offset=".67" stop-color="#a4bb3a"/>
      <stop offset=".68" stop-color="#a6bc39"/>
      <stop offset=".68" stop-color="#a7bd39"/>
      <stop offset=".68" stop-color="#a7bd39"/>
      <stop offset=".69" stop-color="#aabf38"/>
      <stop offset=".69" stop-color="#abbf38"/>
      <stop offset=".7" stop-color="#adc137"/>
      <stop offset=".7" stop-color="#aec137"/>
      <stop offset=".7" stop-color="#afc236"/>
      <stop offset=".71" stop-color="#b0c336"/>
      <stop offset=".71" stop-color="#b2c435"/>
      <stop offset=".71" stop-color="#b4c535"/>
      <stop offset=".72" stop-color="#b4c635"/>
      <stop offset=".72" stop-color="#b7c734"/>
      <stop offset=".73" stop-color="#b8c833"/>
      <stop offset=".73" stop-color="#bac933"/>
      <stop offset=".73" stop-color="#bbca32"/>
      <stop offset=".74" stop-color="#bccb32"/>
      <stop offset=".74" stop-color="#bdcc31"/>
      <stop offset=".75" stop-color="#bfcc30"/>
      <stop offset=".75" stop-color="#c0cd30"/>
      <stop offset=".75" stop-color="#c2cf2f"/>
      <stop offset=".76" stop-color="#c3d02f"/>
      <stop offset=".76" stop-color="#c4d12e"/>
      <stop offset=".77" stop-color="#c6d22d"/>
      <stop offset=".77" stop-color="#c7d22d"/>
      <stop offset=".77" stop-color="#c9d32c"/>
      <stop offset=".78" stop-color="#c9d32c"/>
      <stop offset=".81" stop-color="#c9d32c"/>
      <stop offset=".88" stop-color="#c9d32c"/>
      <stop offset="1" stop-color="#c9d32c"/>
    </linearGradient>
    <clipPath id="clippath-6">
      <rect class="st0" x="183.93" y="370.91" width="70.51" height="81.77" transform="translate(-5.5 2.97) rotate(-.77)"/>
    </clipPath>
    <clipPath id="clippath-7">
      <path class="st0" d="M192.93,452.98c-2.36-27.97,36.02-8.11,54.85-32.72,13.81-18.04,6.53-48.62-30.27-49.31,28.11,7.11,29.88,33.23,15.22,43.34-13.72,9.48-35.26-2.43-45.68,15.12-4.72,7.95-3.6,18.53,5.88,23.57h0Z"/>
    </clipPath>
    <clipPath id="clippath-8">
      <path class="st0" d="M192.93,452.98c-2.36-27.97,36.02-8.11,54.85-32.72,13.81-18.04,6.53-48.62-30.27-49.31,28.11,7.11,29.88,33.23,15.22,43.34-13.72,9.48-35.26-2.43-45.68,15.12-4.72,7.95-3.6,18.53,5.88,23.57h0Z"/>
    </clipPath>
    <linearGradient id="linear-gradient2" x1="629.6" y1="-1142.18" x2="629.72" y2="-1142.18" gradientTransform="translate(310678.96 1042673.86) rotate(-167.72) scale(833.83 -833.83)" gradientUnits="userSpaceOnUse">
      <stop offset="0" stop-color="#26787b"/>
      <stop offset=".12" stop-color="#26787b"/>
      <stop offset=".19" stop-color="#26787b"/>
      <stop offset=".22" stop-color="#26787b"/>
      <stop offset=".23" stop-color="#25797c"/>
      <stop offset=".23" stop-color="#267a7d"/>
      <stop offset=".24" stop-color="#267a7d"/>
      <stop offset=".25" stop-color="#257c7d"/>
      <stop offset=".26" stop-color="#267d7f"/>
      <stop offset=".27" stop-color="#277d80"/>
      <stop offset=".27" stop-color="#267e80"/>
      <stop offset=".28" stop-color="#277f81"/>
      <stop offset=".29" stop-color="#298082"/>
      <stop offset=".3" stop-color="#288182"/>
      <stop offset=".3" stop-color="#288182"/>
      <stop offset=".31" stop-color="#2a8284"/>
      <stop offset=".32" stop-color="#298384"/>
      <stop offset=".33" stop-color="#288485"/>
      <stop offset=".34" stop-color="#278586"/>
      <stop offset=".34" stop-color="#298586"/>
      <stop offset=".35" stop-color="#298687"/>
      <stop offset=".36" stop-color="#288687"/>
      <stop offset=".37" stop-color="#298888"/>
      <stop offset=".38" stop-color="#298988"/>
      <stop offset=".38" stop-color="#28898a"/>
      <stop offset=".39" stop-color="#2a8a89"/>
      <stop offset=".4" stop-color="#2b8b8b"/>
      <stop offset=".41" stop-color="#2a8c8c"/>
      <stop offset=".41" stop-color="#2a8d8b"/>
      <stop offset=".42" stop-color="#2b8d8c"/>
      <stop offset=".43" stop-color="#2b8e8d"/>
      <stop offset=".44" stop-color="#2a8f8d"/>
      <stop offset=".45" stop-color="#2b908e"/>
      <stop offset=".45" stop-color="#2a918f"/>
      <stop offset=".46" stop-color="#2a918f"/>
      <stop offset=".47" stop-color="#2c9190"/>
      <stop offset=".48" stop-color="#2d9391"/>
      <stop offset=".48" stop-color="#2d9391"/>
      <stop offset=".49" stop-color="#2e9493"/>
      <stop offset=".5" stop-color="#2e9493"/>
      <stop offset=".51" stop-color="#2f9694"/>
      <stop offset=".52" stop-color="#2e9694"/>
      <stop offset=".52" stop-color="#2e9795"/>
      <stop offset=".53" stop-color="#2f9896"/>
      <stop offset=".54" stop-color="#2f9896"/>
      <stop offset=".55" stop-color="#2e9997"/>
      <stop offset=".55" stop-color="#2e9a98"/>
      <stop offset=".56" stop-color="#309c99"/>
      <stop offset=".57" stop-color="#2f9d99"/>
      <stop offset=".58" stop-color="#2f9c9b"/>
      <stop offset=".59" stop-color="#309e9b"/>
      <stop offset=".59" stop-color="#309e9b"/>
      <stop offset=".6" stop-color="#2ea09d"/>
      <stop offset=".61" stop-color="#2fa19d"/>
      <stop offset=".62" stop-color="#30a19e"/>
      <stop offset=".62" stop-color="#31a19e"/>
      <stop offset=".63" stop-color="#30a29e"/>
      <stop offset=".64" stop-color="#31a39f"/>
      <stop offset=".65" stop-color="#32a4a0"/>
      <stop offset=".66" stop-color="#32a4a0"/>
      <stop offset=".66" stop-color="#34a6a2"/>
      <stop offset=".67" stop-color="#33a6a2"/>
      <stop offset=".68" stop-color="#34a7a2"/>
      <stop offset=".69" stop-color="#33a8a3"/>
      <stop offset=".7" stop-color="#35a8a4"/>
      <stop offset=".7" stop-color="#36a9a4"/>
      <stop offset=".71" stop-color="#35aaa5"/>
      <stop offset=".72" stop-color="#36aba6"/>
      <stop offset=".73" stop-color="#38aca6"/>
      <stop offset=".73" stop-color="#37aca7"/>
      <stop offset=".74" stop-color="#36ada8"/>
      <stop offset=".75" stop-color="#37aea9"/>
      <stop offset=".76" stop-color="#38afa9"/>
      <stop offset=".77" stop-color="#37b0aa"/>
      <stop offset=".77" stop-color="#39b0ab"/>
      <stop offset=".78" stop-color="#38b1ab"/>
      <stop offset=".79" stop-color="#39b2ac"/>
      <stop offset=".8" stop-color="#38b3ad"/>
      <stop offset=".8" stop-color="#37b4ad"/>
      <stop offset=".81" stop-color="#39b4ae"/>
      <stop offset=".82" stop-color="#38b5af"/>
      <stop offset=".83" stop-color="#37b5af"/>
      <stop offset=".84" stop-color="#38b6b0"/>
      <stop offset=".84" stop-color="#39b8b0"/>
      <stop offset=".88" stop-color="#39b8b0"/>
      <stop offset="1" stop-color="#39b8b0"/>
    </linearGradient>
    <clipPath id="clippath-9">
      <rect class="st0" x="113.79" y="348.88" width="79.24" height="52.15"/>
    </clipPath>
    <clipPath id="clippath-10">
      <path class="st0" d="M193.03,349.18c-28.55-1.68-51.2,4.71-63.4,31.04-4.92,10.6-16.27,2.18,2.42-15.24-32.43,18.17-16.35,56.98,7.68,21.79,13.29-19.47,27.05-36.39,53.3-37.58Z"/>
    </clipPath>
    <clipPath id="clippath-11">
      <path class="st0" d="M193.03,349.18c-28.55-1.68-51.2,4.71-63.4,31.04-4.92,10.6-16.27,2.18,2.42-15.24-32.43,18.17-16.35,56.98,7.68,21.79,13.29-19.47,27.05-36.39,53.3-37.58Z"/>
    </clipPath>
    <linearGradient id="linear-gradient3" x1="629.12" y1="-1137.48" x2="629.27" y2="-1137.48" gradientTransform="translate(-574143.41 343804.69) rotate(-91.93) scale(514.76 -514.76)" gradientUnits="userSpaceOnUse">
      <stop offset="0" stop-color="#e21f26"/>
      <stop offset=".25" stop-color="#e21f26"/>
      <stop offset=".38" stop-color="#e21f26"/>
      <stop offset=".38" stop-color="#e21f26"/>
      <stop offset=".39" stop-color="#e21f26"/>
      <stop offset=".39" stop-color="#e21f26"/>
      <stop offset=".39" stop-color="#e21f26"/>
      <stop offset=".4" stop-color="#e21f26"/>
      <stop offset=".4" stop-color="#e21f26"/>
      <stop offset=".41" stop-color="#e21f26"/>
      <stop offset=".41" stop-color="#e21f26"/>
      <stop offset=".41" stop-color="#e21f26"/>
      <stop offset=".42" stop-color="#e32226"/>
      <stop offset=".42" stop-color="#e32326"/>
      <stop offset=".43" stop-color="#e32326"/>
      <stop offset=".43" stop-color="#e32526"/>
      <stop offset=".43" stop-color="#e32526"/>
      <stop offset=".44" stop-color="#e32726"/>
      <stop offset=".44" stop-color="#e32726"/>
      <stop offset=".45" stop-color="#e42826"/>
      <stop offset=".45" stop-color="#e42826"/>
      <stop offset=".45" stop-color="#e42925"/>
      <stop offset=".46" stop-color="#e42c25"/>
      <stop offset=".46" stop-color="#e42e25"/>
      <stop offset=".46" stop-color="#e42e25"/>
      <stop offset=".47" stop-color="#e52f25"/>
      <stop offset=".47" stop-color="#e53125"/>
      <stop offset=".48" stop-color="#e53225"/>
      <stop offset=".48" stop-color="#e53325"/>
      <stop offset=".48" stop-color="#e53525"/>
      <stop offset=".49" stop-color="#e53525"/>
      <stop offset=".49" stop-color="#e63625"/>
      <stop offset=".5" stop-color="#e63725"/>
      <stop offset=".5" stop-color="#e63825"/>
      <stop offset=".5" stop-color="#e63925"/>
      <stop offset=".51" stop-color="#e63c25"/>
      <stop offset=".51" stop-color="#e63d25"/>
      <stop offset=".52" stop-color="#e73e25"/>
      <stop offset=".52" stop-color="#e74025"/>
      <stop offset=".52" stop-color="#e74025"/>
      <stop offset=".53" stop-color="#e74125"/>
      <stop offset=".53" stop-color="#e74325"/>
      <stop offset=".54" stop-color="#e74425"/>
      <stop offset=".54" stop-color="#e84424"/>
      <stop offset=".54" stop-color="#e84524"/>
      <stop offset=".55" stop-color="#e94624"/>
      <stop offset=".55" stop-color="#e94724"/>
      <stop offset=".55" stop-color="#e84824"/>
      <stop offset=".56" stop-color="#e84a24"/>
      <stop offset=".56" stop-color="#e84c24"/>
      <stop offset=".57" stop-color="#eb4d24"/>
      <stop offset=".57" stop-color="#ea5024"/>
      <stop offset=".57" stop-color="#ea5124"/>
      <stop offset=".58" stop-color="#ea5224"/>
      <stop offset=".58" stop-color="#ea5224"/>
      <stop offset=".59" stop-color="#ea5424"/>
      <stop offset=".59" stop-color="#eb5524"/>
      <stop offset=".59" stop-color="#eb5624"/>
      <stop offset=".6" stop-color="#eb5724"/>
      <stop offset=".6" stop-color="#ec5924"/>
      <stop offset=".61" stop-color="#ec5a24"/>
      <stop offset=".61" stop-color="#ec5b24"/>
      <stop offset=".61" stop-color="#ed5d23"/>
      <stop offset=".62" stop-color="#ec5e24"/>
      <stop offset=".62" stop-color="#ec5f24"/>
      <stop offset=".62" stop-color="#ec6124"/>
      <stop offset=".63" stop-color="#ec6223"/>
      <stop offset=".63" stop-color="#ec6323"/>
      <stop offset=".64" stop-color="#ed6523"/>
      <stop offset=".64" stop-color="#ed6523"/>
      <stop offset=".64" stop-color="#ee6623"/>
      <stop offset=".65" stop-color="#ee6823"/>
      <stop offset=".65" stop-color="#ee6a23"/>
      <stop offset=".66" stop-color="#ee6a23"/>
      <stop offset=".66" stop-color="#ee6c23"/>
      <stop offset=".66" stop-color="#ee6e23"/>
      <stop offset=".67" stop-color="#ee6e23"/>
      <stop offset=".67" stop-color="#ef6f23"/>
      <stop offset=".68" stop-color="#ee7123"/>
      <stop offset=".68" stop-color="#ee7223"/>
      <stop offset=".68" stop-color="#ef7422"/>
      <stop offset=".69" stop-color="#ef7522"/>
      <stop offset=".69" stop-color="#ef7622"/>
      <stop offset=".7" stop-color="#e72"/>
      <stop offset=".7" stop-color="#ef7822"/>
      <stop offset=".7" stop-color="#ef7a22"/>
      <stop offset=".71" stop-color="#f07b22"/>
      <stop offset=".71" stop-color="#f07b22"/>
      <stop offset=".71" stop-color="#f07d22"/>
      <stop offset=".72" stop-color="#f07e22"/>
      <stop offset=".72" stop-color="#f07f22"/>
      <stop offset=".73" stop-color="#f08122"/>
      <stop offset=".73" stop-color="#f08222"/>
      <stop offset=".73" stop-color="#f18321"/>
      <stop offset=".74" stop-color="#f18521"/>
      <stop offset=".74" stop-color="#f18621"/>
      <stop offset=".75" stop-color="#f18721"/>
      <stop offset=".75" stop-color="#f18821"/>
      <stop offset=".75" stop-color="#f18a21"/>
      <stop offset=".76" stop-color="#f38b21"/>
      <stop offset=".76" stop-color="#f38c22"/>
      <stop offset=".77" stop-color="#f28f23"/>
      <stop offset=".77" stop-color="#f28f23"/>
      <stop offset=".77" stop-color="#f29123"/>
      <stop offset=".78" stop-color="#f39222"/>
      <stop offset=".78" stop-color="#f49423"/>
      <stop offset=".79" stop-color="#f49423"/>
      <stop offset=".79" stop-color="#f49523"/>
      <stop offset=".79" stop-color="#f39823"/>
      <stop offset=".8" stop-color="#f39823"/>
      <stop offset=".8" stop-color="#f49a23"/>
      <stop offset=".8" stop-color="#f49b24"/>
      <stop offset=".81" stop-color="#f49c25"/>
      <stop offset=".81" stop-color="#f49d25"/>
      <stop offset=".82" stop-color="#f49f24"/>
      <stop offset=".82" stop-color="#f5a125"/>
      <stop offset=".82" stop-color="#f5a125"/>
      <stop offset=".83" stop-color="#f5a424"/>
      <stop offset=".83" stop-color="#f5a423"/>
      <stop offset=".84" stop-color="#f5a622"/>
      <stop offset=".84" stop-color="#f5a622"/>
      <stop offset=".84" stop-color="#f6a821"/>
      <stop offset=".85" stop-color="#f5a923"/>
      <stop offset=".85" stop-color="#f6aa23"/>
      <stop offset=".86" stop-color="#f6ac24"/>
      <stop offset=".86" stop-color="#f5ad24"/>
      <stop offset=".86" stop-color="#f5ad24"/>
      <stop offset=".87" stop-color="#f6ae24"/>
      <stop offset=".88" stop-color="#f6ae24"/>
      <stop offset="1" stop-color="#f6ae24"/>
    </linearGradient>
  </defs>
  <g>
    <g class="st18">
      <g class="st7">
        <g class="st10">
          <path class="st4" d="M242.39,427.83l-140.21-5.69,3.28-78.47,140.21,5.69-3.28,78.47h0Z"/>
        </g>
      </g>
    </g>
    <g class="st8">
      <g class="st9">
        <g class="st15">
          <path class="st2" d="M104.3,368.51l141.11-21.63,13.83,87.49-141.11,21.63-13.83-87.49Z"/>
        </g>
      </g>
    </g>
    <g class="st12">
      <g class="st11">
        <g class="st14">
          <path class="st1" d="M279.47,374.29l-21.02,95.09-94.22-20.19,21.02-95.09,94.22,20.19h0Z"/>
        </g>
      </g>
    </g>
    <g class="st13">
      <g class="st6">
        <g class="st5">
          <path class="st3" d="M195.58,421.86l-95.85,3.18-2.65-77.47,95.85-3.18,2.65,77.47Z"/>
        </g>
      </g>
    </g>
  </g>
  <text class="st17" transform="translate(267.4 383.64)"><tspan x="0" y="0">Powered by</tspan></text>
  <g>
    <path class="st16" d="M307.67,424.6l-14.94,3.04c-1.08-1.36-2.31-2.95-3.69-4.75-1.38-1.8-3.42-4.56-6.1-8.27l.25-.72c.5-.07,1.13-.24,1.91-.5.78-.26,1.41-.6,1.88-1.02.68-.59,1.09-1.1,1.25-1.52.16-.42.23-.91.23-1.46,0-.59-.18-1.17-.54-1.72-.36-.55-.85-.96-1.47-1.22-.55-.22-1.07-.37-1.55-.45-.49-.08-1.04-.12-1.66-.12h-.77c0,.36,0,1.25-.03,2.66-.02,1.41-.03,3.21-.03,5.38,0,2.87,0,5.31.03,7.33.02,2.01.03,3.89.03,5.63h-15.08c0-1.52,0-3.21.03-5.05.02-1.85.03-5.37.03-10.55,0-1.72,0-3.8-.03-6.23s-.03-4.85-.03-7.27c1.01,0,2.36-.01,4.05-.03s3.3-.03,4.82-.03c4.23,0,7.68.05,10.34.15,2.67.1,5.11.4,7.35.89,3.52.74,6.01,1.83,7.49,3.28s2.21,3,2.21,4.65-.45,3.03-1.36,4.27c-.91,1.24-1.99,2.19-3.26,2.86v.15c1.1,1.35,2.18,2.68,3.25,3.99s2.87,3.52,5.39,6.62Z"/>
    <path class="st16" d="M324.04,426.9h-15.08c0-1.71,0-3.8.03-6.26.02-2.46.03-5.58.03-9.35,0-1.72,0-3.8-.03-6.23-.02-2.43-.03-4.85-.03-7.27h15.08c0,1.87,0,4-.03,6.38-.02,2.38-.03,4.76-.03,7.12,0,3.71,0,6.57.03,8.59.02,2.01.03,4.35.03,7.02Z"/>
    <path class="st16" d="M369.45,424.43l-15.12,3.21c-.29-.88-.62-1.89-1-3.02-.38-1.13-.66-1.99-.86-2.59h-10.13c-.11.35-.38,1.18-.8,2.51-.43,1.33-.77,2.36-1.03,3.1l-14.65-3.21c.51-1,2.34-4.62,5.5-10.85,3.15-6.24,5.79-11.49,7.91-15.76h16.9c2.45,4.95,5.19,10.45,8.21,16.48,3.02,6.03,4.72,9.41,5.08,10.14ZM350.15,415.21c-.38-1.1-.82-2.43-1.33-4s-.96-2.95-1.37-4.17l-.16-.02c-.39,1.17-.86,2.63-1.42,4.36-.56,1.73-.98,3.01-1.25,3.82v.02s5.55,0,5.55,0v-.02Z"/>
    <path class="st16" d="M403.6,407.58c-1.39,0-3.17,0-5.33-.01-2.16,0-3.92-.01-5.28-.01,0,1.35,0,2.61-.03,3.77-.02,1.17-.03,2.53-.03,4.1,0,2.41,0,4.55.03,6.43.02,1.88.03,3.56.03,5.04h-15.08c0-1.36,0-2.86.03-4.49.02-1.63.03-3.9.03-6.81,0-1.3,0-2.61-.01-3.91,0-1.3-.02-2.68-.04-4.13-1.83,0-3.88,0-6.15.01-2.27,0-3.75.01-4.45.01v-9.78c.81,0,3.19,0,7.16.01,3.96,0,7.67.01,11.11.01,2.77,0,6.12,0,10.07-.01s6.6-.01,7.95-.01v9.78Z"/>
    <path class="st16" d="M445.06,424.43l-15.12,3.21c-.29-.88-.62-1.89-1-3.02-.38-1.13-.66-1.99-.86-2.59h-10.13c-.11.35-.38,1.18-.8,2.51-.43,1.33-.77,2.36-1.03,3.1l-14.65-3.21c.51-1,2.34-4.62,5.5-10.85,3.15-6.24,5.79-11.49,7.91-15.76h16.9c2.45,4.95,5.19,10.45,8.21,16.48,3.02,6.03,4.72,9.41,5.08,10.14ZM425.76,415.21c-.38-1.1-.82-2.43-1.33-4s-.96-2.95-1.37-4.17l-.16-.02c-.39,1.17-.86,2.63-1.42,4.36-.56,1.73-.98,3.01-1.25,3.82v.02s5.55,0,5.55,0v-.02Z"/>
  </g>
</svg>